<svg data-v-423bf9ae="" xmlns="http://www.w3.org/2000/svg" viewBox="0 0 394 103" class="iconLeft"><!----><!----><!----><g data-v-423bf9ae="" id="ab82321a-c23b-43ee-a6c5-b5eea36e254b" fill="white" transform="matrix(4.611837305351653,0,0,4.611837305351653,120.26389773870943,4.376656889590208)"><path d="M8.19 13.75L6.66 13.75L5.96 11.47L2.67 11.47L1.99 13.75L0.45 13.75L3.65 3.95L4.96 3.95L8.19 13.75ZM4.06 6.92L3.08 10.16L5.56 10.16L4.56 6.92L4.56 6.92Q4.41 6.41 4.31 5.89L4.31 5.89L4.31 5.89Q4.21 6.41 4.06 6.92L4.06 6.92ZM12.47 16.65L12.47 16.65L11.75 15.50L11.75 15.50Q13.27 15.40 13.85 15.00L13.85 15.00L13.85 15.00Q14.43 14.60 14.43 13.80L14.43 13.80L14.43 13.15L14.43 13.15Q13.80 13.92 12.64 13.92L12.64 13.92L12.64 13.92Q11.34 13.92 10.49 12.94L10.49 12.94L10.49 12.94Q9.65 11.96 9.65 10.16L9.65 10.16L9.65 10.16Q9.65 8.44 10.48 7.43L10.48 7.43L10.48 7.43Q11.31 6.43 12.67 6.43L12.67 6.43L12.67 6.43Q13.78 6.43 14.43 7.11L14.43 7.11L14.43 6.59L15.83 6.59L15.83 13.20L15.83 13.20Q15.83 14.97 15.02 15.75L15.02 15.75L15.02 15.75Q14.20 16.53 12.47 16.65ZM12.89 12.60L12.89 12.60L12.89 12.60Q13.90 12.60 14.43 11.72L14.43 11.72L14.43 8.58L14.43 8.58Q13.90 7.74 12.89 7.74L12.89 7.74L12.89 7.74Q12.00 7.74 11.54 8.37L11.54 8.37L11.54 8.37Q11.07 8.99 11.07 10.16L11.07 10.16L11.07 10.16Q11.07 11.28 11.56 11.94L11.56 11.94L11.56 11.94Q12.05 12.60 12.89 12.60ZM23.37 6.43L23.37 6.43L23.37 6.43Q24.36 6.43 24.99 6.79L24.99 6.79L24.99 9.35L23.62 9.35L23.62 7.77L23.62 7.77Q23.52 7.76 23.32 7.76L23.32 7.76L23.32 7.76Q22.25 7.76 21.57 8.29L21.57 8.29L21.57 8.29Q20.89 8.82 20.89 9.81L20.89 9.81L20.89 12.50L22.93 12.50L22.93 13.75L17.96 13.75L17.96 12.50L19.46 12.50L19.46 7.83L17.96 7.83L17.96 6.59L20.79 6.59L20.79 7.77L20.79 7.77Q21.13 7.15 21.85 6.79L21.85 6.79L21.85 6.79Q22.57 6.43 23.37 6.43ZM33.38 9.84L33.38 9.84L33.38 9.84Q33.38 10.37 33.33 10.72L33.33 10.72L28.41 10.72L28.41 10.72Q28.56 11.62 29.06 12.14L29.06 12.14L29.06 12.14Q29.55 12.66 30.35 12.66L30.35 12.66L30.35 12.66Q31.29 12.66 31.98 12.01L31.98 12.01L32.80 12.91L32.80 12.91Q31.79 13.92 30.34 13.92L30.34 13.92L30.34 13.92Q28.78 13.92 27.89 12.87L27.89 12.87L27.89 12.87Q26.99 11.83 26.99 10.16L26.99 10.16L26.99 10.16Q26.99 8.41 27.89 7.42L27.89 7.42L27.89 7.42Q28.80 6.43 30.34 6.43L30.34 6.43L30.34 6.43Q31.67 6.43 32.52 7.29L32.52 7.29L32.52 7.29Q33.38 8.16 33.38 9.84ZM28.38 9.51L28.38 9.51L31.99 9.51L31.99 9.51Q31.95 8.55 31.47 8.11L31.47 8.11L31.47 8.11Q31.00 7.66 30.34 7.66L30.34 7.66L30.34 7.66Q29.47 7.66 28.98 8.14L28.98 8.14L28.98 8.14Q28.49 8.62 28.38 9.51ZM38.81 13.92L38.81 13.92L38.81 13.92Q37.95 13.92 37.22 13.57L37.22 13.57L37.22 13.57Q36.48 13.23 36.02 12.64L36.02 12.64L36.96 11.82L36.96 11.82Q37.80 12.71 38.91 12.71L38.91 12.71L38.91 12.71Q39.47 12.71 39.82 12.50L39.82 12.50L39.82 12.50Q40.18 12.28 40.18 11.87L40.18 11.87L40.18 11.87Q40.18 11.30 38.60 10.65L38.60 10.65L38.60 10.65Q38.57 10.64 38.56 10.63L38.56 10.63L38.56 10.63Q38.54 10.63 38.51 10.61L38.51 10.61L38.51 10.61Q38.49 10.60 38.47 10.59L38.47 10.59L38.47 10.59Q38.44 10.58 38.42 10.57L38.42 10.57L38.42 10.57Q37.81 10.32 37.49 10.16L37.49 10.16L37.49 10.16Q37.17 10.00 36.81 9.73L36.81 9.73L36.81 9.73Q36.44 9.46 36.28 9.13L36.28 9.13L36.28 9.13Q36.12 8.79 36.12 8.34L36.12 8.34L36.12 8.34Q36.12 7.46 36.87 6.94L36.87 6.94L36.87 6.94Q37.62 6.43 38.77 6.43L38.77 6.43L38.77 6.43Q40.36 6.43 41.34 7.55L41.34 7.55L40.42 8.32L40.42 8.32Q39.65 7.63 38.71 7.63L38.71 7.63L38.71 7.63Q38.14 7.63 37.79 7.83L37.79 7.83L37.79 7.83Q37.44 8.02 37.44 8.36L37.44 8.36L37.44 8.36Q37.44 8.85 38.98 9.45L38.98 9.45L38.98 9.45Q39.03 9.48 39.06 9.49L39.06 9.49L39.06 9.49Q39.56 9.69 39.79 9.79L39.79 9.79L39.79 9.79Q40.01 9.88 40.41 10.11L40.41 10.11L40.41 10.11Q40.81 10.33 41.00 10.54L41.00 10.54L41.00 10.54Q41.19 10.75 41.34 11.10L41.34 11.10L41.34 11.10Q41.50 11.44 41.50 11.84L41.50 11.84L41.50 11.84Q41.50 12.81 40.77 13.36L40.77 13.36L40.77 13.36Q40.04 13.92 38.81 13.92ZM48.09 13.92L48.09 13.92L48.09 13.92Q46.13 13.92 46.13 12.04L46.13 12.04L46.13 7.83L44.56 7.83L44.56 6.59L46.13 6.59L46.13 4.31L47.53 3.64L47.53 6.59L49.94 6.59L49.94 7.83L47.53 7.83L47.53 11.70L47.53 11.70Q47.53 12.18 47.75 12.42L47.75 12.42L47.75 12.42Q47.98 12.66 48.55 12.66L48.55 12.66L48.55 12.66Q49.18 12.66 49.81 12.29L49.81 12.29L49.66 13.59L49.66 13.59Q49.04 13.92 48.09 13.92ZM59.25 9.84L59.25 9.84L59.25 9.84Q59.25 10.37 59.21 10.72L59.21 10.72L54.28 10.72L54.28 10.72Q54.43 11.62 54.93 12.14L54.93 12.14L54.93 12.14Q55.43 12.66 56.22 12.66L56.22 12.66L56.22 12.66Q57.16 12.66 57.85 12.01L57.85 12.01L58.67 12.91L58.67 12.91Q57.67 13.92 56.21 13.92L56.21 13.92L56.21 13.92Q54.66 13.92 53.76 12.87L53.76 12.87L53.76 12.87Q52.86 11.83 52.86 10.16L52.86 10.16L52.86 10.16Q52.86 8.41 53.77 7.42L53.77 7.42L53.77 7.42Q54.67 6.43 56.21 6.43L56.21 6.43L56.21 6.43Q57.54 6.43 58.39 7.29L58.39 7.29L58.39 7.29Q59.25 8.16 59.25 9.84ZM54.25 9.51L54.25 9.51L57.86 9.51L57.86 9.51Q57.82 8.55 57.34 8.11L57.34 8.11L57.34 8.11Q56.87 7.66 56.21 7.66L56.21 7.66L56.21 7.66Q55.34 7.66 54.85 8.14L54.85 8.14L54.85 8.14Q54.36 8.62 54.25 9.51Z"></path></g><!----><g data-v-423bf9ae="" id="31409c97-d27c-4f9e-9581-fff64ae87b64" transform="matrix(1.0662889268663194,0,0,1.0662889268663194,-1.3028494037694216,-1.2975812211163813)" stroke="none" fill="white"><path d="M97.987 50.518l-.006-.946c-.414-7.168-5.727-11.621-13.874-11.621-2.692 0-5.575.499-8.456 1.456 6.134-3.024 10.517-7.633 11.697-12.454.887-3.654-.074-7.308-2.846-10.435l-.955-.939c-2.268-1.918-4.899-2.931-7.63-2.931-5.854 0-11.745 4.675-15.484 12.187 2.293-6.538 2.171-12.828-.407-17.171-1.976-3.326-5.168-5.271-9.515-5.645l-1.04.012c-4.195.362-7.475 2.337-9.484 5.715-2.52 4.231-2.696 10.311-.572 16.649-5.222-10.6-15.189-15.205-22.91-8.639l-.937.955c-2.599 3.073-3.508 6.812-2.557 10.527 1.234 4.821 5.399 9.241 11.317 12.165-2.87-.951-5.724-1.45-8.381-1.45-7.976 0-13.314 4.419-13.937 11.8l.012 1.039c.617 6.959 5.924 11.275 13.852 11.275 2.851 0 5.918-.564 8.983-1.646-6.493 3.277-11.022 8.377-12.02 13.697-.729 3.891.502 7.598 3.654 10.607 2.286 1.861 4.921 2.846 7.62 2.846 5.907 0 11.716-4.621 15.284-11.91-2.152 6.463-1.936 12.621.687 16.877 2.016 3.277 5.381 5.211 9.654 5.447h.863l.092-.006c3.976-.23 7.253-2.133 9.235-5.355 2.681-4.365 2.845-10.736.535-17.369 5.495 11.059 15.77 15.66 23.272 9.004l.638-.646c2.688-3.031 3.647-6.596 2.791-10.316-1.155-4.979-5.539-9.66-11.952-12.846 3.052 1.064 6.109 1.617 8.966 1.617 7.98-.004 13.397-4.464 13.811-11.55zM19.044 25.694c-.456-1.784-.036-3.408 1.11-4.775l.568-.589c1.158-.982 2.337-1.457 3.605-1.457 3.791 0 8.089 4.299 10.479 10.515 1.471 3.587 3.754 7.824 6.192 11.615-3.806-2.441-8.056-4.733-11.676-6.21-5.356-2.062-9.391-5.633-10.278-9.099zm5.605 28.12c-3.037 1.326-6.07 2.025-8.773 2.025-3.264 0-7.241-.973-7.638-5.322l-.012-.5c.416-4.827 4.429-5.842 7.724-5.842 2.675 0 5.685.696 8.718 2.016 3.387 1.453 8.126 2.812 12.648 3.839-4.441.945-9.156 2.279-12.667 3.784zm10.132 16.86c-2.411 6.287-6.797 10.67-10.667 10.67-1.286 0-2.492-.475-3.498-1.277-1.459-1.404-2-2.973-1.657-4.803.699-3.727 4.894-7.781 10.308-10.031 3.617-1.32 7.937-3.672 11.792-6.141-2.448 3.836-4.764 8.056-6.278 11.582zm10.554-59.747c.97-1.626 2.499-2.507 4.405-2.684l.499-.012c2.049.183 3.502 1.034 4.432 2.608 1.812 3.046 1.478 8.472-.862 13.834-1.502 3.505-2.834 8.208-3.779 12.631-1.021-4.523-2.377-9.22-3.845-12.646-2.355-5.396-2.677-10.658-.85-13.731zm9.287 78.436c-.913 1.482-2.293 2.268-4.222 2.395l-.484.006c-2.091-.121-3.572-.938-4.529-2.486-1.876-3.047-1.562-8.518.802-13.947 1.486-3.465 2.83-8.092 3.836-12.529.985 4.572 2.359 9.205 3.788 12.541 2.377 5.454 2.694 10.956.809 14.02zm10.572-59.975c2.535-6.192 6.949-10.515 10.724-10.515 1.271 0 2.45.475 3.424 1.283l.632.626c1.301 1.474 1.738 3.009 1.325 4.694-.845 3.453-5.112 7.198-10.725 9.362-3.46 1.477-7.654 3.775-11.472 6.213 2.462-3.84 4.803-8.125 6.092-11.663zm15.903 45.317c.401 1.713-.055 3.275-1.252 4.639l-.371.383c-4.614 4.035-10.87-.762-14.257-9.047-1.307-3.43-3.665-7.697-6.17-11.623 3.915 2.492 8.165 4.832 11.563 6.133 5.564 2.285 9.679 6.017 10.487 9.515zM62.804 50.03c4.433-1.006 9.059-2.353 12.536-3.845 3.021-1.313 6.05-2.01 8.767-2.01 3.344 0 7.387 1 7.654 5.575l.006.581c-.267 4.553-4.274 5.508-7.588 5.508-2.741 0-5.799-.699-8.852-2.031-3.313-1.425-7.944-2.796-12.523-3.778z"></path></g><!----></svg>