<?xml version="1.0" encoding="UTF-8" standalone="no"?>
<svg
   xmlns:dc="http://purl.org/dc/elements/1.1/"
   xmlns:cc="http://creativecommons.org/ns#"
   xmlns:rdf="http://www.w3.org/1999/02/22-rdf-syntax-ns#"
   xmlns:svg="http://www.w3.org/2000/svg"
   xmlns="http://www.w3.org/2000/svg"
   xmlns:xlink="http://www.w3.org/1999/xlink"
   xmlns:sodipodi="http://sodipodi.sourceforge.net/DTD/sodipodi-0.dtd"
   xmlns:inkscape="http://www.inkscape.org/namespaces/inkscape"
   data-v-fde0c5aa=""
   viewBox="0 0 300 300"
   class="icon"
   version="1.1"
   id="svg128"
   sodipodi:docname="icono.svg"
   inkscape:version="0.92.4 (5da689c313, 2019-01-14)">
  <metadata
     id="metadata132">
    <rdf:RDF>
      <cc:Work
         rdf:about="">
        <dc:format>image/svg+xml</dc:format>
        <dc:type
           rdf:resource="http://purl.org/dc/dcmitype/StillImage" />
        <dc:title></dc:title>
      </cc:Work>
    </rdf:RDF>
  </metadata>
  <sodipodi:namedview
     pagecolor="#ffffff"
     bordercolor="#666666"
     borderopacity="1"
     objecttolerance="10"
     gridtolerance="10"
     guidetolerance="10"
     inkscape:pageopacity="0"
     inkscape:pageshadow="2"
     inkscape:window-width="1366"
     inkscape:window-height="705"
     id="namedview130"
     showgrid="false"
     inkscape:zoom="0.78666667"
     inkscape:cx="56.610163"
     inkscape:cy="109.98736"
     inkscape:window-x="-8"
     inkscape:window-y="-8"
     inkscape:window-maximized="1"
     inkscape:current-layer="svg128" />
  <!---->
  <defs
     data-v-fde0c5aa=""
     id="defs114">
    <!---->
    <linearGradient
       inkscape:collect="always"
       xlink:href="#d213073c-f458-416b-801a-65f1b39e1a39"
       id="linearGradient151"
       gradientTransform="matrix(1.372931,0,0,1.3727735,-31.205315,-35.011261)"
       x1="2.0098848"
       y1="2.0191157"
       x2="97.981385"
       y2="2.0191157"
       gradientUnits="userSpaceOnUse" />
    <linearGradient
       inkscape:collect="always"
       xlink:href="#d213073c-f458-416b-801a-65f1b39e1a39"
       id="linearGradient153"
       gradientTransform="matrix(1.372931,0,0,1.3727735,-31.205315,-35.011261)"
       x1="2.0098848"
       y1="2.0191157"
       x2="97.981385"
       y2="2.0191157"
       gradientUnits="userSpaceOnUse" />
  </defs>
  <!---->
  <defs
     data-v-fde0c5aa=""
     id="defs123">
    <linearGradient
       data-v-fde0c5aa=""
       gradientTransform="rotate(25)"
       id="d213073c-f458-416b-801a-65f1b39e1a39"
       x1="0%"
       y1="0%"
       x2="100%"
       y2="0%">
      <stop
         data-v-fde0c5aa=""
         offset="0%"
         stop-color="#288642"
         stop-opacity="1"
         id="stop118" />
      <stop
         data-v-fde0c5aa=""
         offset="100%"
         stop-color="#27FDFD"
         stop-opacity="1"
         id="stop120" />
    </linearGradient>
  </defs>
  <g
     id="g141"
     transform="matrix(0.72841046,0,0,0.72841046,61.714974,68.067478)">
    <g
       id="g136">
      <g
         data-v-fde0c5aa=""
         id="013b3451-87c8-4574-b04b-c1daafa442d8"
         transform="matrix(2.2922157,0,0,2.2922157,35.392652,35.384609)"
         style="fill:url(#linearGradient153);stroke:none">
        <path
           d="M 97.987,50.518 97.981,49.572 C 97.567,42.404 92.254,37.951 84.107,37.951 c -2.692,0 -5.575,0.499 -8.456,1.456 6.134,-3.024 10.517,-7.633 11.697,-12.454 0.887,-3.654 -0.074,-7.308 -2.846,-10.435 l -0.955,-0.939 c -2.268,-1.918 -4.899,-2.931 -7.63,-2.931 -5.854,0 -11.745,4.675 -15.484,12.187 C 62.726,18.297 62.604,12.007 60.026,7.664 58.05,4.338 54.858,2.393 50.511,2.019 l -1.04,0.012 C 45.276,2.393 41.996,4.368 39.987,7.746 37.467,11.977 37.291,18.057 39.415,24.395 34.193,13.795 24.226,9.19 16.505,15.756 l -0.937,0.955 c -2.599,3.073 -3.508,6.812 -2.557,10.527 1.234,4.821 5.399,9.241 11.317,12.165 -2.87,-0.951 -5.724,-1.45 -8.381,-1.45 -7.976,0 -13.314,4.419 -13.937,11.8 l 0.012,1.039 c 0.617,6.959 5.924,11.275 13.852,11.275 2.851,0 5.918,-0.564 8.983,-1.646 -6.493,3.277 -11.022,8.377 -12.02,13.697 -0.729,3.891 0.502,7.598 3.654,10.607 2.286,1.861 4.921,2.846 7.62,2.846 5.907,0 11.716,-4.621 15.284,-11.91 -2.152,6.463 -1.936,12.621 0.687,16.877 2.016,3.277 5.381,5.211 9.654,5.447 h 0.863 l 0.092,-0.006 c 3.976,-0.23 7.253,-2.133 9.235,-5.355 2.681,-4.365 2.845,-10.736 0.535,-17.369 5.495,11.059 15.77,15.66 23.272,9.004 l 0.638,-0.646 c 2.688,-3.031 3.647,-6.596 2.791,-10.316 -1.155,-4.979 -5.539,-9.66 -11.952,-12.846 3.052,1.064 6.109,1.617 8.966,1.617 7.98,-0.004 13.397,-4.464 13.811,-11.55 z M 19.044,25.694 c -0.456,-1.784 -0.036,-3.408 1.11,-4.775 l 0.568,-0.589 c 1.158,-0.982 2.337,-1.457 3.605,-1.457 3.791,0 8.089,4.299 10.479,10.515 1.471,3.587 3.754,7.824 6.192,11.615 C 37.192,38.562 32.942,36.27 29.322,34.793 23.966,32.731 19.931,29.16 19.044,25.694 Z m 5.605,28.12 c -3.037,1.326 -6.07,2.025 -8.773,2.025 -3.264,0 -7.241,-0.973 -7.638,-5.322 l -0.012,-0.5 c 0.416,-4.827 4.429,-5.842 7.724,-5.842 2.675,0 5.685,0.696 8.718,2.016 3.387,1.453 8.126,2.812 12.648,3.839 -4.441,0.945 -9.156,2.279 -12.667,3.784 z m 10.132,16.86 c -2.411,6.287 -6.797,10.67 -10.667,10.67 -1.286,0 -2.492,-0.475 -3.498,-1.277 -1.459,-1.404 -2,-2.973 -1.657,-4.803 0.699,-3.727 4.894,-7.781 10.308,-10.031 3.617,-1.32 7.937,-3.672 11.792,-6.141 -2.448,3.836 -4.764,8.056 -6.278,11.582 z M 45.335,10.927 C 46.305,9.301 47.834,8.42 49.74,8.243 l 0.499,-0.012 c 2.049,0.183 3.502,1.034 4.432,2.608 1.812,3.046 1.478,8.472 -0.862,13.834 -1.502,3.505 -2.834,8.208 -3.779,12.631 C 49.009,32.781 47.653,28.084 46.185,24.658 43.83,19.262 43.508,14 45.335,10.927 Z m 9.287,78.436 c -0.913,1.482 -2.293,2.268 -4.222,2.395 l -0.484,0.006 c -2.091,-0.121 -3.572,-0.938 -4.529,-2.486 -1.876,-3.047 -1.562,-8.518 0.802,-13.947 1.486,-3.465 2.83,-8.092 3.836,-12.529 0.985,4.572 2.359,9.205 3.788,12.541 2.377,5.454 2.694,10.956 0.809,14.02 z M 65.194,29.388 c 2.535,-6.192 6.949,-10.515 10.724,-10.515 1.271,0 2.45,0.475 3.424,1.283 l 0.632,0.626 c 1.301,1.474 1.738,3.009 1.325,4.694 -0.845,3.453 -5.112,7.198 -10.725,9.362 -3.46,1.477 -7.654,3.775 -11.472,6.213 2.462,-3.84 4.803,-8.125 6.092,-11.663 z m 15.903,45.317 c 0.401,1.713 -0.055,3.275 -1.252,4.639 l -0.371,0.383 C 74.86,83.762 68.604,78.965 65.217,70.68 63.91,67.25 61.552,62.983 59.047,59.057 c 3.915,2.492 8.165,4.832 11.563,6.133 5.564,2.285 9.679,6.017 10.487,9.515 z M 62.804,50.03 c 4.433,-1.006 9.059,-2.353 12.536,-3.845 3.021,-1.313 6.05,-2.01 8.767,-2.01 3.344,0 7.387,1 7.654,5.575 l 0.006,0.581 c -0.267,4.553 -4.274,5.508 -7.588,5.508 -2.741,0 -5.799,-0.699 -8.852,-2.031 -3.313,-1.425 -7.944,-2.796 -12.523,-3.778 z"
           id="path125"
           style="fill:url(#linearGradient151)"
           inkscape:connector-curvature="0" />
      </g>
    </g>
  </g>
  <!---->
</svg>
