<?xml version="1.0" encoding="UTF-8" standalone="no"?>
<svg
   xmlns:dc="http://purl.org/dc/elements/1.1/"
   xmlns:cc="http://creativecommons.org/ns#"
   xmlns:rdf="http://www.w3.org/1999/02/22-rdf-syntax-ns#"
   xmlns:svg="http://www.w3.org/2000/svg"
   xmlns="http://www.w3.org/2000/svg"
   xmlns:xlink="http://www.w3.org/1999/xlink"
   xmlns:sodipodi="http://sodipodi.sourceforge.net/DTD/sodipodi-0.dtd"
   xmlns:inkscape="http://www.inkscape.org/namespaces/inkscape"
   data-v-fde0c5aa=""
   viewBox="0 0 765 219.50024"
   class="iconLeft"
   version="1.1"
   id="svg3963"
   sodipodi:docname="logo-svg.svg"
   inkscape:version="0.92.4 (5da689c313, 2019-01-14)"
   width="765"
   height="219.50024">
  <metadata
     id="metadata3967">
    <rdf:RDF>
      <cc:Work
         rdf:about="">
        <dc:format>image/svg+xml</dc:format>
        <dc:type
           rdf:resource="http://purl.org/dc/dcmitype/StillImage" />
        <dc:title></dc:title>
      </cc:Work>
    </rdf:RDF>
  </metadata>
  <sodipodi:namedview
     pagecolor="#ffffff"
     bordercolor="#666666"
     borderopacity="1"
     objecttolerance="10"
     gridtolerance="10"
     guidetolerance="10"
     inkscape:pageopacity="0"
     inkscape:pageshadow="2"
     inkscape:window-width="1366"
     inkscape:window-height="705"
     id="namedview3965"
     showgrid="false"
     inkscape:zoom="0.39333333"
     inkscape:cx="32.672767"
     inkscape:cy="395.50817"
     inkscape:window-x="-8"
     inkscape:window-y="-8"
     inkscape:window-maximized="1"
     inkscape:current-layer="svg3963"
     fit-margin-top="0"
     fit-margin-left="0"
     fit-margin-right="0"
     fit-margin-bottom="0" />
  <!---->
  <defs
     data-v-fde0c5aa=""
     id="defs3944">
    <!---->
    <linearGradient
       inkscape:collect="always"
       xlink:href="#3f965bd7-248b-4056-b0e7-8e4528e77716"
       id="linearGradient4082"
       gradientTransform="matrix(0.28759818,0,0,0.28756522,22.834094,67.897351)"
       x1="2.0098848"
       y1="2.0191157"
       x2="97.981384"
       y2="2.0191157"
       gradientUnits="userSpaceOnUse" />
    <linearGradient
       inkscape:collect="always"
       xlink:href="#3f965bd7-248b-4056-b0e7-8e4528e77716"
       id="linearGradient4084"
       gradientTransform="matrix(0.28759818,0,0,0.28756522,22.834094,67.897351)"
       x1="2.0098848"
       y1="2.0191157"
       x2="97.981384"
       y2="2.0191157"
       gradientUnits="userSpaceOnUse" />
  </defs>
  <defs
     data-v-fde0c5aa=""
     id="defs3948">
    <!---->
  </defs>
  <g
     data-v-fde0c5aa=""
     id="7d6b68b5-e95d-4b06-924b-9ea1de6b7eb4"
     transform="matrix(9.1907669,0,0,9.1907669,220.44706,-3.5614151)"
     style="fill:#ffffff"
     inkscape:export-filename="C:\Users\Sanmoli\Desktop\agreste\img\logo.png"
     inkscape:export-xdpi="96"
     inkscape:export-ydpi="96">
    <path
       d="M 8.19,13.75 H 6.66 L 5.96,11.47 H 2.67 L 1.99,13.75 H 0.45 l 3.2,-9.8 H 4.96 Z M 4.06,6.92 3.08,10.16 h 2.48 l -1,-3.24 v 0 Q 4.41,6.41 4.31,5.89 v 0 0 Q 4.21,6.41 4.06,6.92 Z m 8.41,9.73 v 0 L 11.75,15.5 v 0 q 1.52,-0.1 2.1,-0.5 v 0 0 q 0.58,-0.4 0.58,-1.2 v 0 -0.65 0 q -0.63,0.77 -1.79,0.77 v 0 0 q -1.3,0 -2.15,-0.98 v 0 0 Q 9.65,11.96 9.65,10.16 v 0 0 q 0,-1.72 0.83,-2.73 v 0 0 q 0.83,-1 2.19,-1 v 0 0 q 1.11,0 1.76,0.68 v 0 -0.52 h 1.4 v 6.61 0 q 0,1.77 -0.81,2.55 v 0 0 q -0.82,0.78 -2.55,0.9 z m 0.42,-4.05 v 0 0 q 1.01,0 1.54,-0.88 v 0 -3.14 0 Q 13.9,7.74 12.89,7.74 v 0 0 q -0.89,0 -1.35,0.63 v 0 0 q -0.47,0.62 -0.47,1.79 v 0 0 q 0,1.12 0.49,1.78 v 0 0 q 0.49,0.66 1.33,0.66 z M 23.37,6.43 v 0 0 q 0.99,0 1.62,0.36 v 0 2.56 h -1.37 v -1.58 0 q -0.1,-0.01 -0.3,-0.01 v 0 0 q -1.07,0 -1.75,0.53 v 0 0 q -0.68,0.53 -0.68,1.52 v 0 2.69 h 2.04 v 1.25 H 17.96 V 12.5 h 1.5 V 7.83 h -1.5 V 6.59 h 2.83 v 1.18 0 q 0.34,-0.62 1.06,-0.98 v 0 0 q 0.72,-0.36 1.52,-0.36 z m 10.01,3.41 v 0 0 q 0,0.53 -0.05,0.88 v 0 h -4.92 v 0 q 0.15,0.9 0.65,1.42 v 0 0 q 0.49,0.52 1.29,0.52 v 0 0 q 0.94,0 1.63,-0.65 v 0 l 0.82,0.9 v 0 q -1.01,1.01 -2.46,1.01 v 0 0 q -1.56,0 -2.45,-1.05 v 0 0 q -0.9,-1.04 -0.9,-2.71 v 0 0 q 0,-1.75 0.9,-2.74 v 0 0 Q 28.8,6.43 30.34,6.43 v 0 0 q 1.33,0 2.18,0.86 v 0 0 q 0.86,0.87 0.86,2.55 z m -5,-0.33 v 0 h 3.61 v 0 Q 31.95,8.55 31.47,8.11 v 0 0 Q 31,7.66 30.34,7.66 v 0 0 q -0.87,0 -1.36,0.48 v 0 0 q -0.49,0.48 -0.6,1.37 z m 10.43,4.41 v 0 0 q -0.86,0 -1.59,-0.35 v 0 0 q -0.74,-0.34 -1.2,-0.93 v 0 l 0.94,-0.82 v 0 q 0.84,0.89 1.95,0.89 v 0 0 q 0.56,0 0.91,-0.21 v 0 0 q 0.36,-0.22 0.36,-0.63 v 0 0 q 0,-0.57 -1.58,-1.22 v 0 0 q -0.03,-0.01 -0.04,-0.02 v 0 0 q -0.02,0 -0.05,-0.02 v 0 0 Q 38.49,10.6 38.47,10.59 v 0 0 q -0.03,-0.01 -0.05,-0.02 v 0 0 q -0.61,-0.25 -0.93,-0.41 v 0 0 Q 37.17,10 36.81,9.73 v 0 0 Q 36.44,9.46 36.28,9.13 v 0 0 Q 36.12,8.79 36.12,8.34 v 0 0 q 0,-0.88 0.75,-1.4 v 0 0 q 0.75,-0.51 1.9,-0.51 v 0 0 q 1.59,0 2.57,1.12 v 0 l -0.92,0.77 v 0 Q 39.65,7.63 38.71,7.63 v 0 0 q -0.57,0 -0.92,0.2 v 0 0 q -0.35,0.19 -0.35,0.53 v 0 0 q 0,0.49 1.54,1.09 v 0 0 q 0.05,0.03 0.08,0.04 v 0 0 q 0.5,0.2 0.73,0.3 v 0 0 q 0.22,0.09 0.62,0.32 v 0 0 q 0.4,0.22 0.59,0.43 v 0 0 q 0.19,0.21 0.34,0.56 v 0 0 q 0.16,0.34 0.16,0.74 v 0 0 q 0,0.97 -0.73,1.52 v 0 0 q -0.73,0.56 -1.96,0.56 z m 9.28,0 v 0 0 q -1.96,0 -1.96,-1.88 v 0 -4.21 H 44.56 V 6.59 h 1.57 V 4.31 l 1.4,-0.67 v 2.95 h 2.41 v 1.24 h -2.41 v 3.87 0 q 0,0.48 0.22,0.72 v 0 0 q 0.23,0.24 0.8,0.24 v 0 0 q 0.63,0 1.26,-0.37 v 0 l -0.15,1.3 v 0 q -0.62,0.33 -1.57,0.33 z M 59.25,9.84 v 0 0 q 0,0.53 -0.04,0.88 v 0 h -4.93 v 0 q 0.15,0.9 0.65,1.42 v 0 0 q 0.5,0.52 1.29,0.52 v 0 0 q 0.94,0 1.63,-0.65 v 0 l 0.82,0.9 v 0 q -1,1.01 -2.46,1.01 v 0 0 q -1.55,0 -2.45,-1.05 v 0 0 q -0.9,-1.04 -0.9,-2.71 v 0 0 q 0,-1.75 0.91,-2.74 v 0 0 q 0.9,-0.99 2.44,-0.99 v 0 0 q 1.33,0 2.18,0.86 v 0 0 q 0.86,0.87 0.86,2.55 z m -5,-0.33 v 0 h 3.61 v 0 Q 57.82,8.55 57.34,8.11 v 0 0 Q 56.87,7.66 56.21,7.66 v 0 0 q -0.87,0 -1.36,0.48 v 0 0 q -0.49,0.48 -0.6,1.37 z"
       id="path3950"
       style="fill:#ffffff"
       inkscape:connector-curvature="0" />
  </g>
  <defs
     data-v-fde0c5aa=""
     id="defs3958">
    <linearGradient
       data-v-fde0c5aa=""
       gradientTransform="rotate(25)"
       id="3f965bd7-248b-4056-b0e7-8e4528e77716"
       x1="0"
       y1="0"
       x2="1"
       y2="0">
      <stop
         data-v-fde0c5aa=""
         offset="0%"
         stop-color="#288642"
         stop-opacity="1"
         id="stop3953" />
      <stop
         data-v-fde0c5aa=""
         offset="100%"
         stop-color="#27FDFD"
         stop-opacity="1"
         id="stop3955" />
    </linearGradient>
  </defs>
  <g
     id="g43"
     transform="translate(-14.576269,-56.81705)">
    <g
       transform="translate(20.33898,10.169496)"
       id="g37">
      <g
         data-v-fde0c5aa=""
         id="e1113e73-78b4-4f53-823f-21c3ebfdd94b"
         transform="matrix(1.8689723,0,0,1.8689723,-9.5193449,42.874099)"
         inkscape:export-filename="C:\Users\Sanmoli\Desktop\agreste\img\logo.png"
         inkscape:export-xdpi="96"
         inkscape:export-ydpi="96"
         style="fill:url(#linearGradient4084);stroke:none">
        <path
           d="M 97.987,50.518 97.981,49.572 C 97.567,42.404 92.254,37.951 84.107,37.951 c -2.692,0 -5.575,0.499 -8.456,1.456 6.134,-3.024 10.517,-7.633 11.697,-12.454 0.887,-3.654 -0.074,-7.308 -2.846,-10.435 l -0.955,-0.939 c -2.268,-1.918 -4.899,-2.931 -7.63,-2.931 -5.854,0 -11.745,4.675 -15.484,12.187 C 62.726,18.297 62.604,12.007 60.026,7.664 58.05,4.338 54.858,2.393 50.511,2.019 l -1.04,0.012 C 45.276,2.393 41.996,4.368 39.987,7.746 37.467,11.977 37.291,18.057 39.415,24.395 34.193,13.795 24.226,9.19 16.505,15.756 l -0.937,0.955 c -2.599,3.073 -3.508,6.812 -2.557,10.527 1.234,4.821 5.399,9.241 11.317,12.165 -2.87,-0.951 -5.724,-1.45 -8.381,-1.45 -7.976,0 -13.314,4.419 -13.937,11.8 l 0.012,1.039 c 0.617,6.959 5.924,11.275 13.852,11.275 2.851,0 5.918,-0.564 8.983,-1.646 -6.493,3.277 -11.022,8.377 -12.02,13.697 -0.729,3.891 0.502,7.598 3.654,10.607 2.286,1.861 4.921,2.846 7.62,2.846 5.907,0 11.716,-4.621 15.284,-11.91 -2.152,6.463 -1.936,12.621 0.687,16.877 2.016,3.277 5.381,5.211 9.654,5.447 h 0.863 l 0.092,-0.006 c 3.976,-0.23 7.253,-2.133 9.235,-5.355 2.681,-4.365 2.845,-10.736 0.535,-17.369 5.495,11.059 15.77,15.66 23.272,9.004 l 0.638,-0.646 c 2.688,-3.031 3.647,-6.596 2.791,-10.316 -1.155,-4.979 -5.539,-9.66 -11.952,-12.846 3.052,1.064 6.109,1.617 8.966,1.617 7.98,-0.004 13.397,-4.464 13.811,-11.55 z M 19.044,25.694 c -0.456,-1.784 -0.036,-3.408 1.11,-4.775 l 0.568,-0.589 c 1.158,-0.982 2.337,-1.457 3.605,-1.457 3.791,0 8.089,4.299 10.479,10.515 1.471,3.587 3.754,7.824 6.192,11.615 C 37.192,38.562 32.942,36.27 29.322,34.793 23.966,32.731 19.931,29.16 19.044,25.694 Z m 5.605,28.12 c -3.037,1.326 -6.07,2.025 -8.773,2.025 -3.264,0 -7.241,-0.973 -7.638,-5.322 l -0.012,-0.5 c 0.416,-4.827 4.429,-5.842 7.724,-5.842 2.675,0 5.685,0.696 8.718,2.016 3.387,1.453 8.126,2.812 12.648,3.839 -4.441,0.945 -9.156,2.279 -12.667,3.784 z m 10.132,16.86 c -2.411,6.287 -6.797,10.67 -10.667,10.67 -1.286,0 -2.492,-0.475 -3.498,-1.277 -1.459,-1.404 -2,-2.973 -1.657,-4.803 0.699,-3.727 4.894,-7.781 10.308,-10.031 3.617,-1.32 7.937,-3.672 11.792,-6.141 -2.448,3.836 -4.764,8.056 -6.278,11.582 z M 45.335,10.927 C 46.305,9.301 47.834,8.42 49.74,8.243 l 0.499,-0.012 c 2.049,0.183 3.502,1.034 4.432,2.608 1.812,3.046 1.478,8.472 -0.862,13.834 -1.502,3.505 -2.834,8.208 -3.779,12.631 C 49.009,32.781 47.653,28.084 46.185,24.658 43.83,19.262 43.508,14 45.335,10.927 Z m 9.287,78.436 c -0.913,1.482 -2.293,2.268 -4.222,2.395 l -0.484,0.006 c -2.091,-0.121 -3.572,-0.938 -4.529,-2.486 -1.876,-3.047 -1.562,-8.518 0.802,-13.947 1.486,-3.465 2.83,-8.092 3.836,-12.529 0.985,4.572 2.359,9.205 3.788,12.541 2.377,5.454 2.694,10.956 0.809,14.02 z M 65.194,29.388 c 2.535,-6.192 6.949,-10.515 10.724,-10.515 1.271,0 2.45,0.475 3.424,1.283 l 0.632,0.626 c 1.301,1.474 1.738,3.009 1.325,4.694 -0.845,3.453 -5.112,7.198 -10.725,9.362 -3.46,1.477 -7.654,3.775 -11.472,6.213 2.462,-3.84 4.803,-8.125 6.092,-11.663 z m 15.903,45.317 c 0.401,1.713 -0.055,3.275 -1.252,4.639 l -0.371,0.383 C 74.86,83.762 68.604,78.965 65.217,70.68 63.91,67.25 61.552,62.983 59.047,59.057 c 3.915,2.492 8.165,4.832 11.563,6.133 5.564,2.285 9.679,6.017 10.487,9.515 z M 62.804,50.03 c 4.433,-1.006 9.059,-2.353 12.536,-3.845 3.021,-1.313 6.05,-2.01 8.767,-2.01 3.344,0 7.387,1 7.654,5.575 l 0.006,0.581 c -0.267,4.553 -4.274,5.508 -7.588,5.508 -2.741,0 -5.799,-0.699 -8.852,-2.031 -3.313,-1.425 -7.944,-2.796 -12.523,-3.778 z"
           id="path3960"
           style="fill:url(#linearGradient4082)"
           inkscape:connector-curvature="0" />
      </g>
    </g>
  </g>
  <!---->
  <g
     transform="matrix(13.142448,0,0,13.142448,-402.3702,-1023.8273)"
     aria-label="studio web"
     style="font-style:normal;font-variant:normal;font-weight:300;font-stretch:normal;font-size:4.41648817px;line-height:1.25;font-family:Lato;-inkscape-font-specification:'Lato Light';letter-spacing:0px;word-spacing:0px;fill:#ffffff;fill-opacity:1;stroke:none;stroke-width:0.1104122"
     id="text27"
     inkscape:export-filename="C:\Users\Sanmoli\Desktop\agreste\img\logo.png"
     inkscape:export-xdpi="96"
     inkscape:export-ydpi="96">
    <path
       inkscape:connector-curvature="0"
       d="m 59.580053,92.64303 q -0.01546,0.03092 -0.04858,0.03092 -0.02429,0 -0.06404,-0.0265 -0.03754,-0.02871 -0.101579,-0.06183 -0.06183,-0.03533 -0.154577,-0.06183 -0.09054,-0.02871 -0.223033,-0.02871 -0.119245,0 -0.218616,0.03533 -0.09716,0.03312 -0.167826,0.09054 -0.06846,0.05742 -0.108204,0.134703 -0.03754,0.07508 -0.03754,0.158994 0,0.103787 0.053,0.172243 0.053,0.06846 0.13912,0.117037 0.08612,0.04858 0.194325,0.08391 0.110412,0.03533 0.225241,0.07066 0.114829,0.03533 0.223033,0.0795 0.110412,0.04196 0.196533,0.105996 0.08612,0.06404 0.13912,0.156785 0.053,0.09275 0.053,0.225241 0,0.143536 -0.053,0.267197 -0.05079,0.123662 -0.150161,0.2142 -0.09716,0.09054 -0.240698,0.143536 -0.143536,0.053 -0.32682,0.053 -0.231866,0 -0.399693,-0.07287 -0.167826,-0.07508 -0.300321,-0.194326 l 0.05079,-0.07508 q 0.01104,-0.01767 0.02429,-0.0265 0.01325,-0.0088 0.03754,-0.0088 0.02871,0 0.07066,0.03533 0.04196,0.03533 0.108204,0.07729 0.06846,0.03975 0.167827,0.07508 0.101579,0.03533 0.249531,0.03533 0.13912,0 0.245116,-0.03754 0.105995,-0.03975 0.176659,-0.105995 0.07066,-0.06625 0.105996,-0.154577 0.03754,-0.09054 0.03754,-0.189909 0,-0.110413 -0.053,-0.183285 -0.053,-0.07287 -0.139119,-0.123661 -0.08612,-0.05079 -0.196534,-0.08612 -0.108204,-0.03533 -0.225241,-0.07066 -0.114829,-0.03533 -0.225241,-0.07729 -0.108204,-0.04196 -0.194325,-0.105996 -0.08612,-0.06404 -0.13912,-0.154577 -0.053,-0.09275 -0.053,-0.229657 0,-0.117037 0.05079,-0.225241 0.05079,-0.108204 0.143536,-0.189909 0.09495,-0.0817 0.229657,-0.130287 0.134703,-0.04858 0.30253,-0.04858 0.20095,0 0.355527,0.05741 0.156785,0.05742 0.287072,0.17666 z"
       style="font-style:normal;font-variant:normal;font-weight:300;font-stretch:normal;font-family:Lato;-inkscape-font-specification:'Lato Light';fill:#ffffff;stroke-width:0.1104122"
       id="path3732" />
    <path
       inkscape:connector-curvature="0"
       d="m 60.868287,94.603951 q -0.223033,0 -0.348903,-0.123662 -0.123661,-0.123662 -0.123661,-0.382026 v -1.501606 h -0.315779 q -0.02429,0 -0.03975,-0.01325 -0.01546,-0.01325 -0.01546,-0.03754 v -0.0817 l 0.375401,-0.0265 0.053,-0.786135 q 0.0022,-0.01987 0.01546,-0.03533 0.01546,-0.01546 0.03975,-0.01546 h 0.09937 v 0.839132 h 0.691181 v 0.156786 h -0.691181 v 1.490565 q 0,0.09054 0.02208,0.156785 0.02429,0.06404 0.06404,0.105996 0.04196,0.04196 0.09716,0.06183 0.05521,0.01987 0.119245,0.01987 0.0795,0 0.136911,-0.02208 0.05741,-0.02429 0.09937,-0.05079 0.04196,-0.02871 0.06846,-0.05079 0.0265,-0.02429 0.04196,-0.02429 0.01767,0 0.03533,0.02208 l 0.05741,0.09275 q -0.08391,0.09275 -0.214199,0.150161 -0.128079,0.05521 -0.267198,0.05521 z"
       style="font-style:normal;font-variant:normal;font-weight:300;font-stretch:normal;font-family:Lato;-inkscape-font-specification:'Lato Light';fill:#ffffff;stroke-width:0.1104122"
       id="path3734" />
    <path
       inkscape:connector-curvature="0"
       d="m 62.00298,92.371416 v 1.404443 q 0,0.309154 0.141327,0.485814 0.141328,0.174451 0.430608,0.174451 0.214199,0 0.399692,-0.108204 0.185492,-0.110412 0.333445,-0.304738 v -1.651766 h 0.211991 v 2.197203 h -0.117037 q -0.06183,0 -0.06404,-0.05741 l -0.01987,-0.32682 q -0.152369,0.189909 -0.353319,0.304738 -0.198742,0.114829 -0.443857,0.114829 -0.183284,0 -0.320196,-0.05741 -0.136911,-0.05741 -0.227449,-0.165618 -0.09054,-0.108204 -0.136911,-0.260573 -0.04637,-0.152369 -0.04637,-0.344486 v -1.404443 z"
       style="font-style:normal;font-variant:normal;font-weight:300;font-stretch:normal;font-family:Lato;-inkscape-font-specification:'Lato Light';fill:#ffffff;stroke-width:0.1104122"
       id="path3736" />
    <path
       inkscape:connector-curvature="0"
       d="m 65.792395,94.568619 q -0.05521,0 -0.06404,-0.05741 l -0.02208,-0.346694 q -0.145744,0.198742 -0.342278,0.315779 -0.194326,0.117037 -0.437232,0.117037 -0.404109,0 -0.631558,-0.280447 -0.225241,-0.280447 -0.225241,-0.841341 0,-0.240699 0.06183,-0.448274 0.06404,-0.209783 0.185492,-0.362152 0.123662,-0.154577 0.300321,-0.242906 0.178868,-0.08833 0.410734,-0.08833 0.223032,0 0.386443,0.08391 0.16341,0.0817 0.282655,0.240699 v -1.302864 h 0.211991 v 3.212995 z m -0.806009,-0.141328 q 0.218616,0 0.395276,-0.11262 0.176659,-0.112621 0.315779,-0.313571 v -1.159328 q -0.128078,-0.187701 -0.282655,-0.264989 -0.152369,-0.07729 -0.346695,-0.07729 -0.194325,0 -0.340069,0.07066 -0.145744,0.07066 -0.245115,0.20095 -0.09716,0.128078 -0.147953,0.309154 -0.04858,0.178868 -0.04858,0.395276 0,0.49023 0.181076,0.722096 0.181076,0.229657 0.518937,0.229657 z"
       style="font-style:normal;font-variant:normal;font-weight:300;font-stretch:normal;font-family:Lato;-inkscape-font-specification:'Lato Light';fill:#ffffff;stroke-width:0.1104122"
       id="path3738" />
    <path
       inkscape:connector-curvature="0"
       d="m 66.922464,92.371416 v 2.197203 h -0.209783 v -2.197203 z m 0.09275,-0.757428 q 0,0.03975 -0.01766,0.07508 -0.01546,0.03312 -0.04196,0.05962 -0.0265,0.0265 -0.06183,0.04196 -0.03533,0.01546 -0.07508,0.01546 -0.03975,0 -0.07508,-0.01546 -0.03533,-0.01546 -0.06183,-0.04196 -0.0265,-0.0265 -0.04196,-0.05962 -0.01546,-0.03533 -0.01546,-0.07508 0,-0.03975 0.01546,-0.07508 0.01546,-0.03754 0.04196,-0.06404 0.0265,-0.0265 0.06183,-0.04196 0.03533,-0.01546 0.07508,-0.01546 0.03975,0 0.07508,0.01546 0.03533,0.01546 0.06183,0.04196 0.0265,0.0265 0.04196,0.06404 0.01766,0.03533 0.01766,0.07508 z"
       style="font-style:normal;font-variant:normal;font-weight:300;font-stretch:normal;font-family:Lato;-inkscape-font-specification:'Lato Light';fill:#ffffff;stroke-width:0.1104122"
       id="path3740" />
    <path
       inkscape:connector-curvature="0"
       d="m 68.540141,92.336084 q 0.236282,0 0.421775,0.0817 0.1877,0.0795 0.315778,0.227449 0.128079,0.147953 0.194326,0.357736 0.06846,0.207575 0.06846,0.465939 0,0.258365 -0.06846,0.46594 -0.06625,0.207575 -0.194326,0.355527 -0.128078,0.147952 -0.315778,0.227449 -0.185493,0.0795 -0.421775,0.0795 -0.236282,0 -0.423983,-0.0795 -0.185492,-0.0795 -0.315779,-0.227449 -0.128078,-0.147952 -0.196534,-0.355527 -0.06625,-0.207575 -0.06625,-0.46594 0,-0.258364 0.06625,-0.465939 0.06846,-0.209783 0.196534,-0.357736 0.130287,-0.147952 0.315779,-0.227449 0.187701,-0.0817 0.423983,-0.0817 z m 0,2.095624 q 0.196534,0 0.342278,-0.06625 0.147952,-0.06846 0.245115,-0.194325 0.09937,-0.12587 0.147952,-0.30253 0.04858,-0.178867 0.04858,-0.399692 0,-0.218616 -0.04858,-0.397484 -0.04858,-0.178867 -0.147952,-0.304737 -0.09716,-0.128079 -0.245115,-0.196534 -0.145744,-0.06846 -0.342278,-0.06846 -0.196534,0 -0.344486,0.06846 -0.145744,0.06846 -0.245115,0.196534 -0.09716,0.12587 -0.147953,0.304737 -0.04858,0.178868 -0.04858,0.397484 0,0.220825 0.04858,0.399692 0.05079,0.17666 0.147953,0.30253 0.09937,0.12587 0.245115,0.194325 0.147952,0.06625 0.344486,0.06625 z"
       style="font-style:normal;font-variant:normal;font-weight:300;font-stretch:normal;font-family:Lato;-inkscape-font-specification:'Lato Light';fill:#ffffff;stroke-width:0.1104122"
       id="path3742" />
    <path
       inkscape:connector-curvature="0"
       d="m 70.637421,92.371416 h 0.161202 q 0.03091,0 0.05079,0.01767 0.01987,0.01546 0.0265,0.03533 l 0.55427,1.733471 q 0.01546,0.05079 0.02429,0.09716 0.0088,0.04637 0.01767,0.09275 0.01104,-0.04637 0.02429,-0.09275 0.01325,-0.04637 0.03092,-0.09716 l 0.589601,-1.748929 q 0.01546,-0.04858 0.06183,-0.04858 h 0.08612 q 0.04858,0 0.06404,0.04858 l 0.580768,1.748929 q 0.03312,0.09937 0.053,0.192118 0.0088,-0.04637 0.01767,-0.09275 0.01104,-0.04858 0.02871,-0.09937 l 0.556478,-1.733471 q 0.01767,-0.053 0.07508,-0.053 h 0.154577 l -0.735345,2.197203 h -0.154577 q -0.03533,0 -0.05079,-0.04637 l -0.602851,-1.784262 q -0.01104,-0.03312 -0.01987,-0.06625 -0.0088,-0.03312 -0.01546,-0.06625 -0.0066,0.03312 -0.01546,0.06625 -0.0066,0.03312 -0.01767,0.06625 l -0.609476,1.784262 q -0.01325,0.04637 -0.053,0.04637 h -0.147953 z"
       style="font-style:normal;font-variant:normal;font-weight:300;font-stretch:normal;font-family:Lato;-inkscape-font-specification:'Lato Light';fill:#ffffff;stroke-width:0.1104122"
       id="path3744" />
    <path
       inkscape:connector-curvature="0"
       d="m 75.026651,92.336084 q 0.185493,0 0.342278,0.06404 0.158994,0.06404 0.273822,0.187701 0.117037,0.121453 0.181076,0.300321 0.06625,0.178868 0.06625,0.410733 0,0.04858 -0.01546,0.06625 -0.01325,0.01767 -0.04417,0.01767 H 74.24272 v 0.04196 q 0,0.247324 0.05741,0.435024 0.05741,0.187701 0.16341,0.315779 0.105996,0.12587 0.256156,0.189909 0.150161,0.06404 0.335653,0.06404 0.165619,0 0.287072,-0.03533 0.121454,-0.03754 0.203159,-0.0817 0.08391,-0.04637 0.132494,-0.0817 0.04858,-0.03754 0.07066,-0.03754 0.02871,0 0.04417,0.02208 l 0.05741,0.07066 q -0.053,0.06625 -0.141327,0.123661 -0.08612,0.05741 -0.194326,0.09937 -0.105996,0.03975 -0.229657,0.06404 -0.121454,0.02429 -0.245115,0.02429 -0.225241,0 -0.410734,-0.07729 -0.185492,-0.0795 -0.317987,-0.229657 -0.132495,-0.150161 -0.205367,-0.366568 -0.07066,-0.218617 -0.07066,-0.499064 0,-0.236282 0.06625,-0.435024 0.06846,-0.20095 0.194325,-0.344486 0.128079,-0.145744 0.311363,-0.227449 0.185492,-0.0817 0.419566,-0.0817 z m 0.0022,0.156785 q -0.170034,0 -0.304737,0.053 -0.134703,0.053 -0.234074,0.152369 -0.09716,0.09937 -0.158994,0.23849 -0.05962,0.13912 -0.0795,0.311363 h 1.448608 q 0,-0.17666 -0.04858,-0.315779 -0.04858,-0.141328 -0.136911,-0.23849 -0.08833,-0.09716 -0.211991,-0.147953 -0.123662,-0.053 -0.273823,-0.053 z"
       style="font-style:normal;font-variant:normal;font-weight:300;font-stretch:normal;font-family:Lato;-inkscape-font-specification:'Lato Light';fill:#ffffff;stroke-width:0.1104122"
       id="path3746" />
    <path
       inkscape:connector-curvature="0"
       d="m 76.480642,94.568619 v -3.212995 h 0.211992 v 1.400026 q 0.145744,-0.194325 0.337861,-0.306946 0.192117,-0.11262 0.432816,-0.11262 0.404109,0 0.62935,0.280447 0.227449,0.278239 0.227449,0.839133 0,0.240698 -0.06404,0.450482 -0.06183,0.207574 -0.185493,0.362152 -0.121453,0.152368 -0.300321,0.240698 -0.17666,0.08833 -0.408525,0.08833 -0.229658,0 -0.395276,-0.08833 -0.165618,-0.09054 -0.284863,-0.264989 l -0.01325,0.269406 q -0.0066,0.05521 -0.05962,0.05521 z m 0.923046,-2.064708 q -0.218616,0 -0.395275,0.11262 -0.17666,0.11262 -0.315779,0.313571 v 1.159328 q 0.12587,0.189909 0.278239,0.267197 0.152368,0.07508 0.35111,0.07508 0.194326,0 0.34007,-0.07066 0.145744,-0.07066 0.242907,-0.198742 0.09937,-0.130287 0.147952,-0.309154 0.05079,-0.181076 0.05079,-0.397484 0,-0.49023 -0.181076,-0.719888 -0.181076,-0.231865 -0.518938,-0.231865 z"
       style="font-style:normal;font-variant:normal;font-weight:300;font-stretch:normal;font-family:Lato;-inkscape-font-specification:'Lato Light';fill:#ffffff;stroke-width:0.1104122"
       id="path3748" />
  </g>
</svg>
